<svg width="200" height="39" viewBox="0 0 200 39" fill="none" xmlns="http://www.w3.org/2000/svg">
<g clip-path="url(#clip0_1_16)">
<path d="M15.6483 6.0637C13.2936 6.0637 12.6128 7.10806 12.6128 9.4115V13.2327H18.8936L18.264 19.4061H12.6152V38.1411H5.07782V19.4061H0V13.2327H5.07782V9.51642C5.07782 3.28933 7.58866 9.66863e-05 14.5941 9.66863e-05C16.0621 -0.00331943 17.5291 0.0837897 18.9863 0.261184V6.07102L15.6483 6.0637Z" fill="white"/>
<path d="M19.4157 24.9011C19.4157 17.942 22.7123 12.7007 29.6202 12.7007C33.3877 12.7007 35.6887 14.6381 36.7891 17.044V13.2326H44.0094V38.141H36.7891V34.3735C35.7423 36.7819 33.3877 38.6656 29.6202 38.6656C22.7123 38.6656 19.4157 33.4316 19.4157 26.4652V24.9011ZM26.9507 26.5774C26.9507 30.2913 28.3098 32.7509 31.8162 32.7509C34.9054 32.7509 36.4744 30.5011 36.4744 26.9435V24.4424C36.4744 20.8847 34.9054 18.635 31.8162 18.635C28.3098 18.635 26.9507 21.0946 26.9507 24.8084V26.5774Z" fill="white"/>
<path d="M59.7089 12.708C62.637 12.708 65.4113 13.3375 66.9291 14.3819L65.2552 19.7208C63.6852 18.9732 61.9698 18.5798 60.231 18.5691C56.1488 18.5691 54.3748 20.9238 54.3748 24.9548V26.4188C54.3748 30.4499 56.1537 32.8045 60.231 32.8045C61.9698 32.7936 63.6852 32.4005 65.2552 31.6528L66.9291 36.9893C65.4113 38.0361 62.6394 38.6656 59.7089 38.6656C50.8636 38.6656 46.835 33.9026 46.835 26.2627V25.111C46.835 17.471 50.8636 12.708 59.7089 12.708Z" fill="white"/>
<path d="M67.9222 26.6385V24.4424C67.9222 17.3783 71.9508 12.73 80.169 12.73C87.9138 12.73 91.3153 17.4393 91.3153 24.3472V28.3246H75.4547C75.6133 31.726 77.1311 33.2438 81.3109 33.2438C84.139 33.2438 87.1208 32.6679 89.3193 31.726L90.6979 36.8868C88.7093 37.9361 84.627 38.7193 81.0181 38.7193C71.4798 38.7169 67.9222 33.9587 67.9222 26.6385ZM75.4572 23.3932H84.5636V22.7661C84.5636 20.0454 83.4655 17.8859 80.1714 17.8859C76.7675 17.8883 75.4572 20.0356 75.4572 23.3834V23.3932Z" fill="white"/>
<path d="M119.247 26.4726C119.247 33.4317 115.899 38.673 108.999 38.673C105.231 38.673 102.615 36.7893 101.568 34.3809V38.1484H94.4532V0.72485L101.988 0.041626V16.683C103.086 14.4869 105.495 12.7057 109.001 12.7057C115.909 12.7057 119.249 17.9396 119.249 24.9061L119.247 26.4726ZM111.712 24.745C111.712 21.2386 110.353 18.6229 106.741 18.6229C103.652 18.6229 101.978 20.8189 101.978 24.379V26.9948C101.978 30.5524 103.652 32.751 106.741 32.751C110.353 32.751 111.712 30.1352 111.712 26.6288V24.745Z" fill="white"/>
<path d="M121.768 26.3139V25.0597C121.768 17.8883 125.85 12.708 134.171 12.708C142.491 12.708 146.576 17.8883 146.576 25.0597V26.3139C146.576 33.4829 142.494 38.6656 134.173 38.6656C125.852 38.6656 121.768 33.4829 121.768 26.3139ZM139.038 24.5351C139.038 21.2385 137.677 18.6228 134.158 18.6228C130.64 18.6228 129.29 21.2385 129.29 24.5351V26.8385C129.29 30.1351 130.652 32.7509 134.158 32.7509C137.665 32.7509 139.038 30.1351 139.038 26.8385V24.5351Z" fill="white"/>
<path d="M149.082 26.3139V25.0597C149.082 17.8883 153.164 12.708 161.485 12.708C169.805 12.708 173.888 17.8883 173.888 25.0597V26.3139C173.888 33.4829 169.805 38.6656 161.485 38.6656C153.164 38.6656 149.082 33.4829 149.082 26.3139ZM166.353 24.5351C166.353 21.2385 164.991 18.6228 161.485 18.6228C157.978 18.6228 156.619 21.2385 156.619 24.5351V26.8385C156.619 30.1351 157.978 32.7509 161.485 32.7509C164.991 32.7509 166.353 30.1351 166.353 26.8385V24.5351Z" fill="white"/>
<path d="M184.248 25.1111L191.678 13.2327H199.684L191.888 25.5307L199.999 38.1411H191.993L184.248 25.9407V38.1411H176.711V0.72485L184.248 0.041626V25.1111Z" fill="white"/>
</g>
<defs>
<clipPath id="clip0_1_16">
<rect width="200" height="38.7082" fill="white"/>
</clipPath>
</defs>
</svg>
